<?xml version="1.0" encoding="UTF-8"?>
<!-- STITCH AND ASH — SKU-1 'Mark' on Bella+Canvas 3001 heavyweight tee (charcoal pitch).
     Thumbnail / placement spec preview only. Not for production. -->
<svg xmlns="http://www.w3.org/2000/svg" viewBox="0 0 600 700" width="600" height="700">
  <rect width="600" height="700" fill="#1A1A1A"/>
  <text x="300" y="30" text-anchor="middle" fill="#7A7468" font-family="Impact, sans-serif" font-size="14" letter-spacing="4">SKU-1 · MARK · LEFT CHEST · BELLA+CANVAS 3001 (CHARCOAL PITCH)</text>

  <!-- tee silhouette -->
  <g transform="translate(100,60)">
    <path d="M 100 40 L 160 20 L 220 20 L 280 40 L 360 100 L 320 140 L 290 110 L 290 580 L 110 580 L 110 110 L 80 140 L 40 100 Z"
          fill="#0A0A0A" stroke="#2A2A2A" stroke-width="1.5"/>
    <!-- collar -->
    <path d="M 160 20 Q 200 70 220 20" fill="none" stroke="#2A2A2A" stroke-width="2"/>
    <!-- left-chest hit zone, scaled to ~3.5" -->
    <g transform="translate(225,165) scale(0.50)">
      <!-- mark -->
      <g fill="none" stroke="#E6E6E6" stroke-width="2.8" stroke-dasharray="9 6">
        <circle cx="0" cy="0" r="36" fill="none"/>
      </g>
      <g fill="#B8332A">
        <path d="M -46 -47 L -45 -48 L 47 45 L 46 46 Z"/>
        <circle cx="-46" cy="-46" r="2.4" fill="none" stroke="#B8332A" stroke-width="0.9"/>
        <path d="M -48.4 -47.6 C -53.6 -46.4, -54 -42.4, -49.6 -39.2" fill="none" stroke="#B8332A" stroke-width="0.7"/>
      </g>
      <g fill="#7A7468">
        <circle cx="-12" cy="14" r="1.0"/><circle cx="10" cy="-6" r="1.0"/>
        <circle cx="16" cy="18" r="1.0"/><circle cx="-22" cy="-12" r="1.0"/>
        <circle cx="22" cy="-22" r="1.0"/><circle cx="-6" cy="26" r="1.0"/>
      </g>
    </g>
    <!-- placement note -->
    <line x1="225" y1="165" x2="350" y2="165" stroke="#7A7468" stroke-width="0.5" stroke-dasharray="3 3"/>
    <text x="360" y="168" fill="#7A7468" font-family="Impact, sans-serif" font-size="11">~3.5" @ 4" down from collar seam, left side</text>
  </g>
  <text x="300" y="670" text-anchor="middle" fill="#7A7468" font-family="Impact, sans-serif" font-size="10">~1,300 stitches · 3 colors · suggested retail $58</text>
</svg>
